<svg width="143" height="30" viewBox="0 0 143 30" fill="none" xmlns="http://www.w3.org/2000/svg">
<path d="M42.0625 15.0195H37.7383L37.7148 13.2031H41.6406C42.2891 13.2031 42.8555 13.0938 43.3398 12.875C43.8242 12.6562 44.1992 12.3438 44.4648 11.9375C44.7383 11.5234 44.875 11.0312 44.875 10.4609C44.875 9.83594 44.7539 9.32812 44.5117 8.9375C44.2773 8.53906 43.9141 8.25 43.4219 8.07031C42.9375 7.88281 42.3203 7.78906 41.5703 7.78906H38.2422V23H35.9805V5.9375H41.5703C42.4453 5.9375 43.2266 6.02734 43.9141 6.20703C44.6016 6.37891 45.1836 6.65234 45.6602 7.02734C46.1445 7.39453 46.5117 7.86328 46.7617 8.43359C47.0117 9.00391 47.1367 9.6875 47.1367 10.4844C47.1367 11.1875 46.957 11.8242 46.5977 12.3945C46.2383 12.957 45.7383 13.418 45.0977 13.7773C44.4648 14.1367 43.7227 14.3672 42.8711 14.4688L42.0625 15.0195ZM41.957 23H36.8477L38.125 21.1602H41.957C42.6758 21.1602 43.2852 21.0352 43.7852 20.7852C44.293 20.5352 44.6797 20.1836 44.9453 19.7305C45.2109 19.2695 45.3438 18.7266 45.3438 18.1016C45.3438 17.4688 45.2305 16.9219 45.0039 16.4609C44.7773 16 44.4219 15.6445 43.9375 15.3945C43.4531 15.1445 42.8281 15.0195 42.0625 15.0195H38.8398L38.8633 13.2031H43.2695L43.75 13.8594C44.5703 13.9297 45.2656 14.1641 45.8359 14.5625C46.4062 14.9531 46.8398 15.4531 47.1367 16.0625C47.4414 16.6719 47.5938 17.3438 47.5938 18.0781C47.5938 19.1406 47.3594 20.0391 46.8906 20.7734C46.4297 21.5 45.7773 22.0547 44.9336 22.4375C44.0898 22.8125 43.0977 23 41.957 23ZM58.082 20.832V14.3047C58.082 13.8047 57.9805 13.3711 57.7773 13.0039C57.582 12.6289 57.2852 12.3398 56.8867 12.1367C56.4883 11.9336 55.9961 11.832 55.4102 11.832C54.8633 11.832 54.3828 11.9258 53.9688 12.1133C53.5625 12.3008 53.2422 12.5469 53.0078 12.8516C52.7812 13.1562 52.668 13.4844 52.668 13.8359H50.5C50.5 13.3828 50.6172 12.9336 50.8516 12.4883C51.0859 12.043 51.4219 11.6406 51.8594 11.2812C52.3047 10.9141 52.8359 10.625 53.4531 10.4141C54.0781 10.1953 54.7734 10.0859 55.5391 10.0859C56.4609 10.0859 57.2734 10.2422 57.9766 10.5547C58.6875 10.8672 59.2422 11.3398 59.6406 11.9727C60.0469 12.5977 60.25 13.3828 60.25 14.3281V20.2344C60.25 20.6562 60.2852 21.1055 60.3555 21.582C60.4336 22.0586 60.5469 22.4688 60.6953 22.8125V23H58.4336C58.3242 22.75 58.2383 22.418 58.1758 22.0039C58.1133 21.582 58.082 21.1914 58.082 20.832ZM58.457 15.3125L58.4805 16.8359H56.2891C55.6719 16.8359 55.1211 16.8867 54.6367 16.9883C54.1523 17.082 53.7461 17.2266 53.418 17.4219C53.0898 17.6172 52.8398 17.8633 52.668 18.1602C52.4961 18.4492 52.4102 18.7891 52.4102 19.1797C52.4102 19.5781 52.5 19.9414 52.6797 20.2695C52.8594 20.5977 53.1289 20.8594 53.4883 21.0547C53.8555 21.2422 54.3047 21.3359 54.8359 21.3359C55.5 21.3359 56.0859 21.1953 56.5938 20.9141C57.1016 20.6328 57.5039 20.2891 57.8008 19.8828C58.1055 19.4766 58.2695 19.082 58.293 18.6992L59.2188 19.7422C59.1641 20.0703 59.0156 20.4336 58.7734 20.832C58.5312 21.2305 58.207 21.6133 57.8008 21.9805C57.4023 22.3398 56.9258 22.6406 56.3711 22.8828C55.8242 23.1172 55.207 23.2344 54.5195 23.2344C53.6602 23.2344 52.9062 23.0664 52.2578 22.7305C51.6172 22.3945 51.1172 21.9453 50.7578 21.3828C50.4062 20.8125 50.2305 20.1758 50.2305 19.4727C50.2305 18.793 50.3633 18.1953 50.6289 17.6797C50.8945 17.1562 51.2773 16.7227 51.7773 16.3789C52.2773 16.0273 52.8789 15.7617 53.582 15.582C54.2852 15.4023 55.0703 15.3125 55.9375 15.3125H58.457ZM71.043 19.6367C71.043 19.3242 70.9727 19.0352 70.832 18.7695C70.6992 18.4961 70.4219 18.25 70 18.0312C69.5859 17.8047 68.9609 17.6094 68.125 17.4453C67.4219 17.2969 66.7852 17.1211 66.2148 16.918C65.6523 16.7148 65.1719 16.4688 64.7734 16.1797C64.3828 15.8906 64.082 15.5508 63.8711 15.1602C63.6602 14.7695 63.5547 14.3125 63.5547 13.7891C63.5547 13.2891 63.6641 12.8164 63.8828 12.3711C64.1094 11.9258 64.4258 11.5312 64.832 11.1875C65.2461 10.8438 65.7422 10.5742 66.3203 10.3789C66.8984 10.1836 67.543 10.0859 68.2539 10.0859C69.2695 10.0859 70.1367 10.2656 70.8555 10.625C71.5742 10.9844 72.125 11.4648 72.5078 12.0664C72.8906 12.6602 73.082 13.3203 73.082 14.0469H70.9141C70.9141 13.6953 70.8086 13.3555 70.5977 13.0273C70.3945 12.6914 70.0938 12.4141 69.6953 12.1953C69.3047 11.9766 68.8242 11.8672 68.2539 11.8672C67.6523 11.8672 67.1641 11.9609 66.7891 12.1484C66.4219 12.3281 66.1523 12.5586 65.9805 12.8398C65.8164 13.1211 65.7344 13.418 65.7344 13.7305C65.7344 13.9648 65.7734 14.1758 65.8516 14.3633C65.9375 14.543 66.0859 14.7109 66.2969 14.8672C66.5078 15.0156 66.8047 15.1562 67.1875 15.2891C67.5703 15.4219 68.0586 15.5547 68.6523 15.6875C69.6914 15.9219 70.5469 16.2031 71.2188 16.5312C71.8906 16.8594 72.3906 17.2617 72.7188 17.7383C73.0469 18.2148 73.2109 18.793 73.2109 19.4727C73.2109 20.0273 73.0938 20.5352 72.8594 20.9961C72.6328 21.457 72.3008 21.8555 71.8633 22.1914C71.4336 22.5195 70.918 22.7773 70.3164 22.9648C69.7227 23.1445 69.0547 23.2344 68.3125 23.2344C67.1953 23.2344 66.25 23.0352 65.4766 22.6367C64.7031 22.2383 64.1172 21.7227 63.7188 21.0898C63.3203 20.457 63.1211 19.7891 63.1211 19.0859H65.3008C65.332 19.6797 65.5039 20.1523 65.8164 20.5039C66.1289 20.8477 66.5117 21.0938 66.9648 21.2422C67.418 21.3828 67.8672 21.4531 68.3125 21.4531C68.9062 21.4531 69.4023 21.375 69.8008 21.2188C70.207 21.0625 70.5156 20.8477 70.7266 20.5742C70.9375 20.3008 71.043 19.9883 71.043 19.6367ZM78.2383 5V23H76.0586V5H78.2383ZM85.9844 10.3203L80.4531 16.2383L77.3594 19.4492L77.1836 17.1406L79.3984 14.4922L83.3359 10.3203H85.9844ZM84.0039 23L79.4805 16.9531L80.6055 15.0195L86.5586 23H84.0039ZM93.25 23.2344C92.3672 23.2344 91.5664 23.0859 90.8477 22.7891C90.1367 22.4844 89.5234 22.0586 89.0078 21.5117C88.5 20.9648 88.1094 20.3164 87.8359 19.5664C87.5625 18.8164 87.4258 17.9961 87.4258 17.1055V16.6133C87.4258 15.582 87.5781 14.6641 87.8828 13.8594C88.1875 13.0469 88.6016 12.3594 89.125 11.7969C89.6484 11.2344 90.2422 10.8086 90.9062 10.5195C91.5703 10.2305 92.2578 10.0859 92.9688 10.0859C93.875 10.0859 94.6562 10.2422 95.3125 10.5547C95.9766 10.8672 96.5195 11.3047 96.9414 11.8672C97.3633 12.4219 97.6758 13.0781 97.8789 13.8359C98.082 14.5859 98.1836 15.4062 98.1836 16.2969V17.2695H88.7148V15.5H96.0156V15.3359C95.9844 14.7734 95.8672 14.2266 95.6641 13.6953C95.4688 13.1641 95.1562 12.7266 94.7266 12.3828C94.2969 12.0391 93.7109 11.8672 92.9688 11.8672C92.4766 11.8672 92.0234 11.9727 91.6094 12.1836C91.1953 12.3867 90.8398 12.6914 90.543 13.0977C90.2461 13.5039 90.0156 14 89.8516 14.5859C89.6875 15.1719 89.6055 15.8477 89.6055 16.6133V17.1055C89.6055 17.707 89.6875 18.2734 89.8516 18.8047C90.0234 19.3281 90.2695 19.7891 90.5898 20.1875C90.918 20.5859 91.3125 20.8984 91.7734 21.125C92.2422 21.3516 92.7734 21.4648 93.3672 21.4648C94.1328 21.4648 94.7812 21.3086 95.3125 20.9961C95.8438 20.6836 96.3086 20.2656 96.707 19.7422L98.0195 20.7852C97.7461 21.1992 97.3984 21.5938 96.9766 21.9688C96.5547 22.3438 96.0352 22.6484 95.418 22.8828C94.8086 23.1172 94.0859 23.2344 93.25 23.2344ZM106.023 10.3203V11.9844H99.168V10.3203H106.023ZM101.488 7.23828H103.656V19.8594C103.656 20.2891 103.723 20.6133 103.855 20.832C103.988 21.0508 104.16 21.1953 104.371 21.2656C104.582 21.3359 104.809 21.3711 105.051 21.3711C105.23 21.3711 105.418 21.3555 105.613 21.3242C105.816 21.2852 105.969 21.2539 106.07 21.2305L106.082 23C105.91 23.0547 105.684 23.1055 105.402 23.1523C105.129 23.207 104.797 23.2344 104.406 23.2344C103.875 23.2344 103.387 23.1289 102.941 22.918C102.496 22.707 102.141 22.3555 101.875 21.8633C101.617 21.3633 101.488 20.6914 101.488 19.8477V7.23828ZM114.438 16.1797V16.0625C114.438 14.3594 114.629 12.8203 115.012 11.4453C115.395 10.0625 115.883 8.85156 116.477 7.8125C117.07 6.77344 117.695 5.91406 118.352 5.23438C119.008 4.54687 119.613 4.05078 120.168 3.74609L120.625 5.17578C120.164 5.52734 119.695 6.01172 119.219 6.62891C118.75 7.24609 118.316 8.00391 117.918 8.90234C117.527 9.80078 117.211 10.8438 116.969 12.0312C116.727 13.2188 116.605 14.5547 116.605 16.0391V16.2031C116.605 17.6875 116.727 19.0273 116.969 20.2227C117.211 21.4102 117.527 22.457 117.918 23.3633C118.316 24.2695 118.75 25.0391 119.219 25.6719C119.695 26.3125 120.164 26.8203 120.625 27.1953L120.168 28.5078C119.613 28.2031 119.008 27.707 118.352 27.0195C117.695 26.3398 117.07 25.4805 116.477 24.4414C115.883 23.4102 115.395 22.2031 115.012 20.8203C114.629 19.4375 114.438 17.8906 114.438 16.1797ZM133.223 13.1094V15.7109C133.223 17.1094 133.098 18.2891 132.848 19.25C132.598 20.2109 132.238 20.9844 131.77 21.5703C131.301 22.1562 130.734 22.582 130.07 22.8477C129.414 23.1055 128.672 23.2344 127.844 23.2344C127.188 23.2344 126.582 23.1523 126.027 22.9883C125.473 22.8242 124.973 22.5625 124.527 22.2031C124.09 21.8359 123.715 21.3594 123.402 20.7734C123.09 20.1875 122.852 19.4766 122.688 18.6406C122.523 17.8047 122.441 16.8281 122.441 15.7109V13.1094C122.441 11.7109 122.566 10.5391 122.816 9.59375C123.074 8.64844 123.438 7.89063 123.906 7.32031C124.375 6.74219 124.938 6.32812 125.594 6.07812C126.258 5.82813 127 5.70312 127.82 5.70312C128.484 5.70312 129.094 5.78516 129.648 5.94922C130.211 6.10547 130.711 6.35938 131.148 6.71094C131.586 7.05469 131.957 7.51563 132.262 8.09375C132.574 8.66406 132.812 9.36328 132.977 10.1914C133.141 11.0195 133.223 11.9922 133.223 13.1094ZM131.043 16.0625V12.7461C131.043 11.9805 130.996 11.3086 130.902 10.7305C130.816 10.1445 130.688 9.64453 130.516 9.23047C130.344 8.81641 130.125 8.48047 129.859 8.22266C129.602 7.96484 129.301 7.77734 128.957 7.66016C128.621 7.53516 128.242 7.47266 127.82 7.47266C127.305 7.47266 126.848 7.57031 126.449 7.76562C126.051 7.95312 125.715 8.25391 125.441 8.66797C125.176 9.08203 124.973 9.625 124.832 10.2969C124.691 10.9688 124.621 11.7852 124.621 12.7461V16.0625C124.621 16.8281 124.664 17.5039 124.75 18.0898C124.844 18.6758 124.98 19.1836 125.16 19.6133C125.34 20.0352 125.559 20.3828 125.816 20.6562C126.074 20.9297 126.371 21.1328 126.707 21.2656C127.051 21.3906 127.43 21.4531 127.844 21.4531C128.375 21.4531 128.84 21.3516 129.238 21.1484C129.637 20.9453 129.969 20.6289 130.234 20.1992C130.508 19.7617 130.711 19.2031 130.844 18.5234C130.977 17.8359 131.043 17.0156 131.043 16.0625ZM141.238 16.0625V16.1797C141.238 17.8906 141.047 19.4375 140.664 20.8203C140.281 22.2031 139.793 23.4102 139.199 24.4414C138.605 25.4805 137.98 26.3398 137.324 27.0195C136.668 27.707 136.062 28.2031 135.508 28.5078L135.051 27.1953C135.512 26.8438 135.977 26.3516 136.445 25.7188C136.914 25.0938 137.348 24.3203 137.746 23.3984C138.145 22.4844 138.465 21.4297 138.707 20.2344C138.949 19.0312 139.07 17.6875 139.07 16.2031V16.0391C139.07 14.5547 138.941 13.2148 138.684 12.0195C138.426 10.8164 138.09 9.75781 137.676 8.84375C137.27 7.92969 136.832 7.16016 136.363 6.53516C135.902 5.90234 135.465 5.41406 135.051 5.07031L135.508 3.74609C136.062 4.05078 136.668 4.54687 137.324 5.23438C137.98 5.91406 138.605 6.77344 139.199 7.8125C139.793 8.85156 140.281 10.0625 140.664 11.4453C141.047 12.8203 141.238 14.3594 141.238 16.0625Z" fill="white"/>
<path d="M3.75 12.5H26.25M3.75 12.5L6.25 25H23.75L26.25 12.5M3.75 12.5L11.25 5M26.25 12.5L18.75 5" stroke="#E0E1DD" stroke-width="2" stroke-linecap="round" stroke-linejoin="round"/>
</svg>
