<svg width="180" height="48" fill="none" xmlns="http://www.w3.org/2000/svg"><path d="M44.463 6.379c.915.13 1.535.408 1.862.833.36.425.539.98.539 1.666 0 2.254-1.209 3.3-3.626 3.136l-1.715-.147a171.846 171.846 0 0 0-5.782-.392 115.911 115.911 0 0 0-5.978-.147h-2.205c-.392 4.835-.8 9.245-1.225 13.23l8.428-.147c1.209 0 2.009.212 2.401.637.425.425.637.996.637 1.715 0 1.11-.327 1.993-.98 2.646-.653.62-1.584.931-2.793.931h-8.379l-.294 2.107c-.686 5.39-2.156 9.228-4.41 11.515-2.221 2.287-5.292 3.43-9.212 3.43-2.221 0-4.263-.474-6.125-1.421-1.862-.98-3.234-2.156-4.116-3.528-.36-.555-.539-1.225-.539-2.009 0-.784.18-1.47.539-2.058.392-.588.866-.882 1.421-.882.392 0 .768.13 1.127.392.392.261.882.768 1.47 1.519 1.568 2.058 3.512 3.087 5.831 3.087 1.862 0 3.414-.751 4.655-2.254 1.274-1.535 2.09-3.936 2.45-7.203l.294-2.695h-2.352c-.751 0-1.405-.212-1.96-.637-.523-.425-.784-1.029-.784-1.813 0-1.013.261-1.78.784-2.303.523-.555 1.29-.833 2.303-.833.915 0 1.813-.016 2.695-.049.392-3.593.817-7.954 1.274-13.083-3.528.327-6.01.898-7.448 1.715-1.437.817-2.156 2.025-2.156 3.626 0 1.11.327 2.172.98 3.185.196.294.294.588.294.882 0 .588-.327 1.11-.98 1.568a3.958 3.958 0 0 1-2.205.637c-.882 0-1.633-.261-2.254-.784-.392-.327-.768-.996-1.127-2.009-.36-1.013-.539-2.14-.539-3.381 0-4.05 2.074-6.99 6.223-8.82 4.181-1.83 10.274-2.744 18.277-2.744 5.553 0 10.453.294 14.7.882zm5.092 14.553c-1.372 0-2.401-.31-3.087-.931-.686-.653-1.03-1.552-1.03-2.695 0-1.143.442-2.09 1.324-2.842.914-.784 2.041-1.176 3.38-1.176 1.21 0 2.19.294 2.94.882.752.588 1.128 1.421 1.128 2.499 0 1.307-.425 2.352-1.274 3.136-.85.751-1.977 1.127-3.381 1.127zm-.392 26.313c-2.123 0-3.675-.751-4.655-2.254-.948-1.503-1.421-3.495-1.421-5.978 0-1.47.18-3.348.539-5.635a55.65 55.65 0 0 1 1.47-6.468c.294-1.045.686-1.764 1.176-2.156.49-.392 1.274-.588 2.352-.588 1.666 0 2.499.555 2.499 1.666 0 .817-.31 2.711-.931 5.684-.784 3.593-1.176 6.027-1.176 7.301 0 .98.13 1.731.392 2.254.261.523.702.784 1.323.784.588 0 1.323-.408 2.205-1.225.882-.817 2.058-2.107 3.528-3.871.392-.457.833-.686 1.323-.686.425 0 .751.196.98.588.261.392.392.931.392 1.617 0 1.307-.31 2.32-.931 3.038-3.234 3.953-6.256 5.929-9.065 5.929zm32.785-11.172c.425 0 .752.196.98.588.262.392.392.931.392 1.617 0 1.307-.31 2.32-.93 3.038-1.405 1.731-2.94 3.152-4.607 4.263-1.666 1.11-3.577 1.666-5.733 1.666-6.664 0-9.996-4.688-9.996-14.063 0-1.437.05-2.891.147-4.361h-1.91c-.98 0-1.65-.18-2.01-.539-.326-.36-.49-.931-.49-1.715 0-1.83.735-2.744 2.205-2.744h2.793c.556-3.593 1.405-6.876 2.548-9.849 1.144-2.973 2.516-5.341 4.116-7.105 1.634-1.764 3.381-2.646 5.243-2.646 1.372 0 2.45.604 3.234 1.813.784 1.209 1.176 2.728 1.176 4.557 0 5.063-2.123 9.473-6.37 13.23h5.488c.523 0 .899.114 1.127.343.229.229.343.653.343 1.274 0 2.254-1.845 3.381-5.537 3.381H68.18a101.698 101.698 0 0 0-.098 3.822c0 3.397.392 5.782 1.176 7.154.817 1.372 2.091 2.058 3.822 2.058 1.405 0 2.646-.425 3.724-1.274 1.078-.85 2.352-2.123 3.822-3.822.392-.457.833-.686 1.323-.686zM73.373 8.927c-.49 0-1.045.62-1.666 1.862-.588 1.209-1.16 2.907-1.715 5.096-.522 2.156-.963 4.557-1.323 7.203 1.928-1.666 3.365-3.528 4.312-5.586.98-2.09 1.47-3.985 1.47-5.684 0-1.927-.359-2.891-1.078-2.891zm56.232 27.146c.424 0 .751.196.98.588.261.392.392.931.392 1.617 0 1.274-.311 2.287-.931 3.038-3.234 3.953-6.681 5.929-10.339 5.929-3.169 0-5.701-1.225-7.595-3.675-1.895-2.45-2.842-5.962-2.842-10.535 0-1.11.049-2.221.147-3.332-2.156.392-4.508.686-7.056.882-1.699.13-2.859.212-3.48.245-.653 3.332-1.567 7.415-2.743 12.25-.686 2.842-1.993 4.263-3.92 4.263-2.091 0-3.136-.947-3.136-2.842 0-.425.081-1.013.245-1.764 1.11-4.475 1.992-8.265 2.646-11.368l-2.352.098c-1.078 0-1.862-.18-2.352-.539-.49-.392-.735-1.013-.735-1.862 0-1.078.31-1.862.93-2.352.621-.523 1.65-.817 3.088-.882l2.597-.098c.849-4.606 1.274-8.118 1.274-10.535 0-1.535-.229-2.58-.686-3.136-.458-.555-1.062-.833-1.813-.833-2.287 0-4.868 1.911-7.742 5.733-.425.555-.899.833-1.421.833-.458 0-.85-.212-1.176-.637-.327-.425-.49-.964-.49-1.617 0-1.013.408-2.09 1.225-3.234 1.437-1.993 3.25-3.626 5.439-4.9 2.188-1.307 4.41-1.96 6.664-1.96 2.123 0 3.756.735 4.9 2.205 1.176 1.437 1.764 3.691 1.764 6.762 0 2.711-.392 6.386-1.176 11.025l4.802-.245c2.058-.098 3.822-.261 5.292-.49.588-3.593 1.486-6.958 2.695-10.094 1.208-3.136 2.711-5.684 4.508-7.644 1.796-1.96 3.805-2.94 6.027-2.94 1.633 0 2.923.653 3.871 1.96.947 1.274 1.421 2.956 1.421 5.047 0 8.101-4.133 13.72-12.397 16.856a54.407 54.407 0 0 0-.147 4.067c0 3.43.424 5.864 1.274 7.301.849 1.437 2.041 2.156 3.577 2.156a6.859 6.859 0 0 0 3.675-1.029c1.11-.719 2.368-1.927 3.773-3.626.392-.457.833-.686 1.323-.686zM122.99 8.29c-.719 0-1.487.653-2.303 1.96-.784 1.307-1.536 3.087-2.254 5.341-.719 2.254-1.291 4.72-1.715 7.399 2.613-1.078 4.54-2.613 5.782-4.606 1.241-1.993 1.862-4.557 1.862-7.693 0-.751-.131-1.34-.392-1.764-.262-.425-.588-.637-.98-.637zm13.918 38.955c-1.47 0-2.679-.67-3.626-2.009-.915-1.372-1.372-3.07-1.372-5.096 0-2.45.163-4.688.49-6.713.327-2.058.866-4.23 1.617-6.517.327-.98.784-1.682 1.372-2.107.588-.425 1.519-.637 2.793-.637.719 0 1.209.114 1.47.343.294.229.441.572.441 1.029 0 .261-.18 1.143-.539 2.646a50.967 50.967 0 0 0-.784 3.283c-.653 3.43-.98 5.717-.98 6.86 0 .686.082 1.176.245 1.47.163.261.425.392.784.392.49 0 1.094-.49 1.813-1.47.751-.98 1.535-2.466 2.352-4.459.849-1.993 1.666-4.443 2.45-7.35.261-.98.653-1.682 1.176-2.107.555-.425 1.372-.637 2.45-.637.751 0 1.274.098 1.568.294.294.163.441.49.441.98 0 .817-.408 3.054-1.225 6.713-.915 4.181-1.372 6.762-1.372 7.742 0 .62.131 1.11.392 1.47.261.327.604.49 1.029.49.653 0 1.421-.392 2.303-1.176.915-.817 2.123-2.123 3.626-3.92.392-.457.833-.686 1.323-.686.425 0 .751.196.98.588.261.392.392.931.392 1.617 0 1.307-.31 2.32-.931 3.038-1.405 1.731-2.924 3.152-4.557 4.263-1.601 1.11-3.43 1.666-5.488 1.666-1.568 0-2.728-.604-3.479-1.813-.719-1.209-1.078-2.907-1.078-5.096-.555 2.221-1.388 3.936-2.499 5.145-1.111 1.176-2.303 1.764-3.577 1.764zm32.238 0c-3.267 0-5.652-1.258-7.154-3.773-1.47-2.515-2.205-6.158-2.205-10.927 0-4.214.522-8.787 1.568-13.72 1.045-4.965 2.564-9.18 4.557-12.642 2.025-3.495 4.426-5.243 7.203-5.243 1.502 0 2.711.653 3.626 1.96.914 1.274 1.372 2.94 1.372 4.998 0 2.679-.507 5.341-1.519 7.987-1.013 2.646-2.695 5.423-5.047 8.33 1.6.13 2.989.67 4.165 1.617 1.208.947 2.123 2.172 2.744 3.675.653 1.503.98 3.136.98 4.9 0 2.45-.49 4.655-1.47 6.615-.948 1.96-2.205 3.495-3.773 4.606-1.568 1.078-3.251 1.617-5.047 1.617zm-2.891-19.698c2.156-3.953 3.871-7.432 5.145-10.437 1.306-3.038 1.96-5.733 1.96-8.085 0-1.045-.131-1.846-.392-2.401-.229-.555-.556-.833-.98-.833-.654 0-1.372.98-2.156 2.94-.752 1.927-1.454 4.557-2.107 7.889-.654 3.332-1.144 6.974-1.47 10.927zm3.087 14.406c1.11 0 2.041-.604 2.793-1.813.784-1.209 1.176-2.973 1.176-5.292 0-1.797-.327-3.152-.98-4.067-.654-.915-1.438-1.372-2.352-1.372-1.144 0-2.107.588-2.891 1.764-.784 1.176-1.176 2.891-1.176 5.145 0 1.96.326 3.397.98 4.312.653.882 1.47 1.323 2.45 1.323z" fill="#FFFFFF"/></svg>