<svg version="1.0" xmlns="http://www.w3.org/2000/svg" width="800" height="800" viewBox="0 0 64 64" xml:space="preserve"><path fill="#394240" d="M31.998 2.478c.279 0 .463.509.463.509l8.806 18.759 20.729 3.167-14.999 15.38 3.541 21.701-18.54-10.254-18.54 10.254 3.541-21.701L2 24.912l20.729-3.167 8.798-18.743s.192-.524.471-.524m0-2.478c-.775 0-1.48.448-1.811 1.15l-8.815 18.778-19.674 3.007a2.003 2.003 0 0 0-1.13 3.374l14.294 14.657-3.378 20.704a1.996 1.996 0 0 0 .822 1.957 1.994 1.994 0 0 0 2.119.116l17.572-9.719 17.572 9.719a1.991 1.991 0 0 0 2.119-.116c.627-.44.946-1.201.822-1.957l-3.378-20.704 14.294-14.657a2 2 0 0 0-1.13-3.374l-19.674-3.006L33.809 1.15A2.002 2.002 0 0 0 31.998 0z"/><path fill="#F9EBB2" d="M31.998 2.478c.279 0 .463.509.463.509l8.806 18.759 20.729 3.167-14.999 15.38 3.541 21.701-18.54-10.254-18.54 10.254 3.541-21.701L2 24.912l20.729-3.167 8.798-18.743s.192-.524.471-.524"/></svg>